<?xml version="1.0" standalone="no"?>
<!DOCTYPE svg PUBLIC "-//W3C//DTD SVG 20010904//EN"
 "http://www.w3.org/TR/2001/REC-SVG-20010904/DTD/svg10.dtd">
<svg version="1.0" xmlns="http://www.w3.org/2000/svg"
 width="512.000000pt" height="512.000000pt" viewBox="0 0 512.000000 512.000000"
 preserveAspectRatio="xMidYMid meet">
<metadata>
Created by potrace 1.14, written by Peter Selinger 2001-2017
</metadata>
<g transform="translate(0.000000,512.000000) scale(0.100000,-0.100000)"
fill="#000000" stroke="none">
<path d="M2453 5005 c-86 -19 -173 -67 -239 -134 -53 -52 -74 -91 -321 -591
-145 -294 -274 -546 -286 -558 -12 -13 -34 -30 -49 -38 -15 -8 -287 -52 -605
-98 -384 -56 -598 -92 -634 -106 -291 -108 -407 -458 -240 -719 17 -26 178
-191 358 -366 540 -526 528 -514 541 -566 10 -41 2 -99 -83 -595 -114 -669
-110 -635 -95 -723 49 -294 358 -479 634 -382 28 10 281 139 561 286 488 258
512 269 565 269 53 0 77 -12 582 -278 463 -243 537 -279 605 -293 263 -54 528
130 573 398 15 88 19 54 -95 723 -86 499 -93 553 -83 595 14 53 14 54 526 551
188 184 356 355 372 381 168 261 52 611 -238 719 -52 20 -961 160 -1035 160
-48 0 -104 -38 -128 -87 -35 -71 -13 -140 58 -188 22 -16 84 -28 264 -54 664
-95 738 -108 774 -132 51 -34 90 -116 81 -170 -4 -23 -13 -53 -21 -68 -7 -14
-107 -118 -222 -231 -666 -655 -652 -641 -689 -715 -21 -43 -38 -98 -45 -145
-13 -86 -20 -37 101 -745 45 -259 81 -492 81 -518 0 -103 -75 -177 -181 -177
-53 0 -76 11 -560 266 -278 147 -530 276 -560 287 -72 28 -241 30 -311 4 -26
-9 -278 -138 -560 -287 -493 -259 -516 -270 -569 -270 -103 0 -180 73 -181
172 -1 24 42 297 96 608 82 480 96 575 91 632 -7 83 -36 161 -84 232 -20 30
-223 235 -450 456 -227 221 -419 414 -426 429 -37 73 -27 148 31 211 43 48 51
51 318 89 606 87 904 132 935 142 75 25 153 72 208 127 63 63 33 7 449 849
155 314 166 330 250 352 54 15 119 -1 162 -37 23 -20 89 -143 246 -459 229
-464 229 -463 312 -479 45 -8 122 30 146 73 41 72 37 82 -200 563 -207 417
-224 449 -278 502 -70 69 -152 114 -242 133 -82 18 -129 18 -210 0z"/>
<path d="M2422 3780 c-33 -17 -75 -47 -92 -67 -17 -19 -88 -148 -156 -287 -69
-138 -133 -254 -142 -258 -9 -4 -133 -23 -275 -43 -141 -20 -272 -41 -290 -47
-121 -41 -207 -161 -207 -290 0 -128 18 -157 222 -357 99 -97 190 -182 203
-188 55 -29 129 -16 175 32 26 27 34 45 38 84 2 30 -1 64 -8 81 -7 17 -85 100
-173 185 -89 85 -158 157 -155 160 3 4 95 20 205 36 350 52 370 56 424 85 28
16 66 47 85 70 19 22 88 152 155 287 66 136 124 247 129 247 5 0 63 -111 129
-247 67 -135 136 -265 155 -287 66 -81 106 -94 423 -141 156 -23 287 -45 290
-49 4 -4 -86 -97 -199 -207 -299 -289 -294 -274 -224 -677 49 -279 50 -292 38
-292 -4 0 -119 59 -255 130 -164 87 -266 135 -302 142 -92 18 -139 2 -415
-143 -138 -72 -253 -129 -256 -126 -4 3 1 48 10 100 9 52 16 112 16 133 0 139
-189 197 -270 84 -33 -46 -73 -291 -60 -362 15 -77 45 -132 101 -182 61 -54
131 -80 218 -78 71 1 106 16 444 194 l158 83 151 -80 c354 -186 379 -197 449
-198 130 -1 231 60 288 175 42 84 41 136 -13 448 l-44 255 217 220 c197 198
220 225 236 274 38 116 2 258 -84 333 -67 59 -119 74 -396 113 -143 20 -268
39 -277 43 -9 4 -73 120 -142 258 -68 139 -139 268 -156 287 -17 20 -59 50
-92 67 -52 26 -72 30 -138 30 -66 0 -86 -4 -138 -30z"/>
</g>
</svg>
