<?xml version="1.0" standalone="no"?>
<!DOCTYPE svg PUBLIC "-//W3C//DTD SVG 20010904//EN"
 "http://www.w3.org/TR/2001/REC-SVG-20010904/DTD/svg10.dtd">
<svg version="1.0" xmlns="http://www.w3.org/2000/svg"
 width="512.000000pt" height="512.000000pt" viewBox="0 0 512.000000 512.000000"
 preserveAspectRatio="xMidYMid meet">
<metadata>
Created by potrace 1.14, written by Peter Selinger 2001-2017
</metadata>
<g transform="translate(0.000000,512.000000) scale(0.100000,-0.100000)"
fill="#000000" stroke="none">
<path d="M2446 5004 c-83 -20 -168 -68 -232 -133 -53 -52 -74 -91 -321 -591
-145 -294 -274 -546 -286 -558 -12 -13 -34 -30 -49 -38 -15 -8 -288 -52 -606
-98 -366 -54 -598 -92 -630 -104 -75 -29 -131 -64 -179 -114 -160 -166 -187
-415 -64 -607 17 -26 178 -191 358 -366 540 -526 528 -514 541 -566 10 -41 2
-99 -84 -600 -52 -305 -97 -581 -100 -614 -4 -39 0 -84 10 -129 67 -283 363
-451 630 -357 28 10 281 139 561 286 488 258 512 269 565 269 53 0 77 -12 582
-277 427 -225 540 -281 595 -292 86 -18 132 -18 211 0 190 45 340 204 372 396
15 88 19 54 -95 723 -86 499 -93 553 -83 595 14 53 14 54 526 551 188 184 356
355 372 381 178 276 37 644 -280 732 -93 26 -982 151 -1021 143 -77 -14 -133
-109 -110 -185 12 -42 67 -97 104 -106 12 -3 227 -34 477 -70 250 -36 469 -70
485 -75 72 -23 132 -120 121 -192 -4 -22 -13 -52 -20 -67 -8 -14 -208 -217
-445 -449 -391 -385 -434 -430 -465 -492 -46 -93 -62 -190 -47 -290 6 -41 49
-300 96 -575 47 -275 86 -522 86 -548 0 -103 -75 -177 -181 -177 -53 0 -76 11
-570 271 -283 148 -537 278 -565 287 -68 23 -222 23 -290 0 -27 -9 -205 -99
-395 -198 -710 -374 -681 -360 -741 -360 -102 0 -179 74 -180 172 -1 24 42
297 96 608 82 480 96 575 91 632 -7 83 -36 161 -84 232 -20 30 -223 235 -450
456 -227 221 -419 414 -426 429 -23 43 -28 87 -16 131 15 54 72 117 119 129
20 6 286 46 591 91 305 44 571 85 590 92 76 24 154 71 209 128 50 51 73 88
164 272 57 117 178 360 266 540 174 352 183 365 268 387 54 15 119 0 162 -37
23 -20 88 -141 246 -459 229 -464 229 -463 312 -479 45 -8 122 30 146 73 41
72 38 82 -200 563 -207 417 -224 449 -278 502 -126 124 -293 172 -459 132z"/>
<path d="M2459 3796 c-53 -19 -104 -53 -135 -89 -15 -18 -83 -144 -151 -282
-69 -139 -131 -253 -141 -257 -9 -4 -133 -23 -275 -43 -280 -39 -302 -44 -364
-87 -119 -81 -165 -233 -112 -374 19 -50 42 -77 201 -233 99 -97 191 -182 205
-190 17 -8 46 -12 81 -9 49 4 59 9 94 46 34 37 38 47 38 92 0 28 -7 64 -15 79
-8 16 -85 97 -172 179 -86 83 -154 154 -151 157 3 3 129 24 279 46 313 46 370
65 434 143 19 24 89 154 156 290 66 135 124 246 129 246 5 0 63 -111 129 -247
67 -135 136 -265 155 -287 66 -81 106 -94 423 -141 156 -23 287 -45 291 -49 3
-4 -86 -97 -200 -207 -299 -289 -294 -274 -224 -677 49 -279 50 -292 38 -292
-4 0 -119 59 -255 130 -164 87 -266 135 -302 142 -92 18 -139 2 -415 -143
-138 -72 -253 -129 -256 -126 -4 3 1 48 10 100 9 52 16 112 16 133 0 139 -189
197 -270 84 -32 -45 -73 -291 -60 -359 14 -74 34 -115 80 -165 47 -51 104 -82
175 -95 93 -17 139 -2 406 139 136 71 253 130 260 130 6 0 124 -60 262 -132
252 -133 252 -133 329 -136 139 -7 237 49 297 170 42 84 41 136 -13 448 l-44
255 217 220 c197 198 220 225 236 274 38 116 2 258 -84 333 -67 59 -119 74
-396 113 -143 20 -268 39 -277 43 -10 4 -72 117 -141 258 -69 138 -139 267
-157 287 -17 20 -59 50 -92 67 -51 25 -73 30 -132 30 -39 -1 -87 -7 -107 -14z"/>
</g>
</svg>
